<svg width="30" height="20" viewBox="0 0 30 20" fill="none" xmlns="http://www.w3.org/2000/svg">
<path d="M8.99998 8.66675C9.70722 8.66675 10.3855 8.3858 10.8856 7.8857C11.3857 7.3856 11.6666 6.70733 11.6666 6.00008C11.6666 5.29284 11.3857 4.61456 10.8856 4.11446C10.3855 3.61437 9.70722 3.33341 8.99998 3.33341H2.99998V8.66675H8.99998ZM10.3333 11.3334H2.99998V16.6667H10.3333C11.0406 16.6667 11.7188 16.3858 12.2189 15.8857C12.719 15.3856 13 14.7073 13 14.0001C13 13.2928 12.719 12.6146 12.2189 12.1145C11.7188 11.6144 11.0406 11.3334 10.3333 11.3334ZM13.084 9.42941C14.0834 10.0303 14.8582 10.9423 15.29 12.0255C15.7217 13.1088 15.7865 14.3037 15.4744 15.4273C15.1624 16.5509 14.4907 17.5413 13.5621 18.2467C12.6336 18.9522 11.4994 19.3339 10.3333 19.3334H0.333313V0.666748H8.99998C10.0153 0.666866 11.0095 0.956788 11.8657 1.50244C12.7219 2.0481 13.4045 2.82681 13.8334 3.74707C14.2623 4.66733 14.4197 5.69089 14.2869 6.69747C14.1541 7.70406 13.7368 8.65183 13.084 9.42941ZM19.6666 2.00008H27V4.00008H19.6666V2.00008ZM29.6666 13.3334H19.6666V13.6667C19.6663 14.4904 19.9434 15.2902 20.4531 15.9372C20.9628 16.5841 21.6755 17.0407 22.4763 17.2332C23.2772 17.4257 24.1195 17.343 24.8676 16.9983C25.6156 16.6537 26.2259 16.0672 26.6 15.3334H29.4453C29.0391 16.8111 28.111 18.0915 26.8331 18.9374C25.5551 19.7832 24.0139 20.1373 22.495 19.9338C20.976 19.7304 19.5822 18.9834 18.5719 17.831C17.5615 16.6787 17.0031 15.1993 17 13.6667V11.6667C17 9.98704 17.6672 8.37614 18.855 7.18841C20.0427 6.00068 21.6536 5.33342 23.3333 5.33342C25.013 5.33342 26.6239 6.00068 27.8117 7.18841C28.9994 8.37614 29.6666 9.98704 29.6666 11.6667V13.3334ZM26.8613 10.6667C26.643 9.8994 26.1805 9.22415 25.5438 8.74336C24.9072 8.26257 24.1311 8.00246 23.3333 8.00246C22.5355 8.00246 21.7595 8.26257 21.1228 8.74336C20.4862 9.22415 20.0236 9.8994 19.8053 10.6667H26.8613Z" fill="white"/>
</svg>
