<svg width="28" height="28" viewBox="0 0 28 28" fill="none" xmlns="http://www.w3.org/2000/svg">
<path d="M24.652 13.4294C24.5427 11.3306 23.8128 9.31155 22.5547 7.62808C22.1714 8.04092 21.7616 8.4284 21.328 8.78808C19.9959 9.89454 18.5073 10.7977 16.9107 11.4681C17.1334 11.9347 17.3374 12.3867 17.5174 12.8134V12.8174C17.5681 12.9366 17.617 13.0566 17.664 13.1774C19.6827 12.9507 21.8107 13.0334 23.8734 13.3121C24.148 13.3494 24.4067 13.3894 24.652 13.4294ZM12.1387 3.49608C13.4381 5.32698 14.6363 7.2276 15.728 9.18941C17.3587 8.54675 18.7067 7.73608 19.792 6.83342C20.1688 6.52292 20.5234 6.18655 20.8534 5.82675C18.9347 4.21304 16.5071 3.32986 14 3.33341C13.3761 3.33299 12.7533 3.38697 12.1387 3.49475V3.49608ZM3.67069 11.3294C4.57899 11.3065 5.48621 11.2518 6.39069 11.1654C8.57687 10.9699 10.7444 10.6034 12.8734 10.0694C11.7607 8.13636 10.5594 6.2557 9.27335 4.43341C7.89964 5.11395 6.68837 6.08196 5.72168 7.2718C4.75499 8.46164 4.05551 9.84546 3.67069 11.3294ZM5.71069 20.7134C6.22802 19.9574 6.90802 19.1067 7.81069 18.1814C9.74935 16.1947 12.0374 14.6481 14.6854 13.7947L14.768 13.7707C14.548 13.2854 14.3414 12.8521 14.1334 12.4441C11.6854 13.1574 9.10669 13.6027 6.53735 13.8334C5.28402 13.9467 4.16002 13.9961 3.33335 14.0041C3.33099 16.4475 4.17108 18.8171 5.71202 20.7134H5.71069ZM18.0067 23.8867C17.4925 21.2938 16.7647 18.7477 15.8307 16.2747C13.1614 17.2441 11.0347 18.6614 9.39069 20.3521C8.72723 21.0219 8.13844 21.7618 7.63469 22.5588C9.4731 23.9305 11.7063 24.67 14 24.6667C15.3732 24.6687 16.7338 24.4047 18.0067 23.8894V23.8867ZM20.504 22.4534C22.5857 20.8531 24.0038 18.541 24.4867 15.9601C24.0334 15.8467 23.4587 15.7334 22.8267 15.6454C21.4215 15.4431 19.9957 15.4283 18.5867 15.6014C19.3801 17.8399 20.0207 20.1296 20.504 22.4547V22.4534ZM14 27.3334C6.63602 27.3334 0.666687 21.3641 0.666687 14.0001C0.666687 6.63608 6.63602 0.666748 14 0.666748C21.364 0.666748 27.3334 6.63608 27.3334 14.0001C27.3334 21.3641 21.364 27.3334 14 27.3334Z" fill="white"/>
</svg>
