<svg width="28" height="28" viewBox="0 0 28 28" fill="none" xmlns="http://www.w3.org/2000/svg">
<path d="M14 10.0001C12.9391 10.0001 11.9217 10.4215 11.1716 11.1717C10.4214 11.9218 9.99999 12.9392 9.99999 14.0001C9.99999 15.0609 10.4214 16.0784 11.1716 16.8285C11.9217 17.5787 12.9391 18.0001 14 18.0001C15.0609 18.0001 16.0783 17.5787 16.8284 16.8285C17.5786 16.0784 18 15.0609 18 14.0001C18 12.9392 17.5786 11.9218 16.8284 11.1717C16.0783 10.4215 15.0609 10.0001 14 10.0001ZM14 7.33342C15.7681 7.33342 17.4638 8.03579 18.714 9.28604C19.9643 10.5363 20.6667 12.232 20.6667 14.0001C20.6667 15.7682 19.9643 17.4639 18.714 18.7141C17.4638 19.9644 15.7681 20.6667 14 20.6667C12.2319 20.6667 10.5362 19.9644 9.28594 18.7141C8.0357 17.4639 7.33332 15.7682 7.33332 14.0001C7.33332 12.232 8.0357 10.5363 9.28594 9.28604C10.5362 8.03579 12.2319 7.33342 14 7.33342ZM22.6667 7.00008C22.6667 7.44211 22.4911 7.86603 22.1785 8.17859C21.8659 8.49115 21.442 8.66675 21 8.66675C20.558 8.66675 20.134 8.49115 19.8215 8.17859C19.5089 7.86603 19.3333 7.44211 19.3333 7.00008C19.3333 6.55805 19.5089 6.13413 19.8215 5.82157C20.134 5.50901 20.558 5.33342 21 5.33342C21.442 5.33342 21.8659 5.50901 22.1785 5.82157C22.4911 6.13413 22.6667 6.55805 22.6667 7.00008ZM14 3.33341C10.7013 3.33341 10.1627 3.34275 8.62799 3.41075C7.58266 3.46008 6.88132 3.60008 6.23066 3.85341C5.65199 4.07741 5.23466 4.34541 4.79066 4.79075C4.37333 5.19395 4.05246 5.68619 3.85199 6.23075C3.59866 6.88408 3.45866 7.58408 3.41066 8.62808C3.34132 10.1001 3.33332 10.6147 3.33332 14.0001C3.33332 17.2987 3.34266 17.8374 3.41066 19.3721C3.45999 20.4161 3.59999 21.1187 3.85199 21.7681C4.07866 22.3481 4.34532 22.7654 4.78799 23.2081C5.23732 23.6561 5.65466 23.9241 6.22799 24.1454C6.88666 24.4001 7.58799 24.5414 8.62799 24.5894C10.1 24.6587 10.6147 24.6667 14 24.6667C17.2987 24.6667 17.8373 24.6574 19.372 24.5894C20.4147 24.5401 21.1173 24.4001 21.768 24.1481C22.3453 23.9227 22.7653 23.6547 23.208 23.2121C23.6573 22.7627 23.9253 22.3454 24.1467 21.7721C24.4 21.1147 24.5413 20.4121 24.5893 19.3721C24.6587 17.9001 24.6667 17.3854 24.6667 14.0001C24.6667 10.7014 24.6573 10.1627 24.5893 8.62808C24.54 7.58542 24.4 6.88141 24.1467 6.23075C23.9457 5.68675 23.6254 5.1947 23.2093 4.79075C22.8063 4.37321 22.314 4.0523 21.7693 3.85208C21.116 3.59875 20.4147 3.45875 19.372 3.41075C17.9 3.34141 17.3853 3.33341 14 3.33341ZM14 0.666748C17.6227 0.666748 18.0747 0.680081 19.496 0.746748C20.916 0.813415 21.8827 1.03608 22.7333 1.36675C23.6133 1.70541 24.3547 2.16408 25.096 2.90408C25.774 3.57061 26.2986 4.37687 26.6333 5.26675C26.9627 6.11608 27.1867 7.08408 27.2533 8.50408C27.316 9.92542 27.3333 10.3774 27.3333 14.0001C27.3333 17.6227 27.32 18.0747 27.2533 19.4961C27.1867 20.9161 26.9627 21.8827 26.6333 22.7334C26.2996 23.6238 25.7748 24.4302 25.096 25.0961C24.4293 25.7738 23.6231 26.2984 22.7333 26.6334C21.884 26.9627 20.916 27.1868 19.496 27.2534C18.0747 27.3161 17.6227 27.3334 14 27.3334C10.3773 27.3334 9.92532 27.3201 8.50399 27.2534C7.08399 27.1868 6.11732 26.9627 5.26666 26.6334C4.37642 26.2994 3.57003 25.7747 2.90399 25.0961C2.22587 24.4297 1.70123 23.6234 1.36666 22.7334C1.03599 21.8841 0.813323 20.9161 0.746656 19.4961C0.68399 18.0747 0.666656 17.6227 0.666656 14.0001C0.666656 10.3774 0.67999 9.92542 0.746656 8.50408C0.813323 7.08275 1.03599 6.11741 1.36666 5.26675C1.7003 4.37632 2.22506 3.56984 2.90399 2.90408C3.57022 2.22572 4.37656 1.70105 5.26666 1.36675C6.11732 1.03608 7.08266 0.813415 8.50399 0.746748C9.92532 0.684081 10.3773 0.666748 14 0.666748Z" fill="white"/>
</svg>
