<svg width="27" height="25" viewBox="0 0 27 25" fill="none" xmlns="http://www.w3.org/2000/svg">
<path d="M6.25335 3.66678C6.25299 4.37402 5.9717 5.05216 5.47136 5.55201C4.97101 6.05185 4.29259 6.33247 3.58535 6.33211C2.8781 6.33176 2.19997 6.05047 1.70012 5.55012C1.20027 5.04977 0.91966 4.37136 0.920014 3.66411C0.920367 2.95687 1.20166 2.27873 1.70201 1.77889C2.20235 1.27904 2.88077 0.998426 3.58801 0.99878C4.29526 0.999133 4.97339 1.28042 5.47324 1.78077C5.97309 2.28112 6.2537 2.95954 6.25335 3.66678ZM6.33335 8.30678H1.00001V25.0001H6.33335V8.30678ZM14.76 8.30678H9.45335V25.0001H14.7067V16.2401C14.7067 11.3601 21.0667 10.9068 21.0667 16.2401V25.0001H26.3333V14.4268C26.3333 6.20011 16.92 6.50678 14.7067 10.5468L14.76 8.30678Z" fill="white"/>
</svg>
