<svg width="28" height="28" viewBox="0 0 28 28" fill="none" xmlns="http://www.w3.org/2000/svg">
<path d="M7.67066 22.6587L8.63599 23.2227C10.2639 24.1722 12.1154 24.6706 14 24.6667C16.1097 24.6667 18.172 24.0412 19.9261 22.8691C21.6802 21.697 23.0474 20.0311 23.8547 18.082C24.662 16.133 24.8733 13.9882 24.4617 11.9191C24.0501 9.84999 23.0342 7.94937 21.5425 6.45761C20.0507 4.96585 18.1501 3.94995 16.081 3.53837C14.0118 3.1268 11.8671 3.33803 9.91804 4.14537C7.96896 4.9527 6.30305 6.31987 5.13098 8.074C3.95891 9.82812 3.33333 11.8904 3.33333 14.0001C3.33333 15.9147 3.83599 17.7507 4.77866 19.3654L5.34133 20.3307L4.47066 23.5321L7.67066 22.6587ZM0.671992 27.3334L2.47466 20.7094C1.28684 18.6732 0.662787 16.3574 0.666659 14.0001C0.666659 6.63608 6.63599 0.666748 14 0.666748C21.364 0.666748 27.3333 6.63608 27.3333 14.0001C27.3333 21.3641 21.364 27.3334 14 27.3334C11.6437 27.3372 9.32887 26.7136 7.29333 25.5267L0.671992 27.3334ZM9.18799 7.74408C9.36666 7.73075 9.54666 7.73075 9.72533 7.73875C9.79733 7.74408 9.86933 7.75208 9.94133 7.76008C10.1533 7.78408 10.3867 7.91341 10.4653 8.09208C10.8627 8.99341 11.2493 9.90142 11.6227 10.8121C11.7053 11.0147 11.656 11.2747 11.4987 11.5281C11.3905 11.6994 11.2734 11.8649 11.148 12.0241C10.9973 12.2174 10.6733 12.5721 10.6733 12.5721C10.6733 12.5721 10.5413 12.7294 10.592 12.9254C10.6107 13.0001 10.672 13.1081 10.728 13.1987L10.8067 13.3254C11.148 13.8947 11.6067 14.4721 12.1667 15.0161C12.3267 15.1707 12.4827 15.3294 12.6507 15.4774C13.2747 16.0281 13.9813 16.4774 14.744 16.8107L14.7507 16.8134C14.864 16.8627 14.9213 16.8894 15.0867 16.9601C15.1693 16.9947 15.2547 17.0254 15.3413 17.0481C15.4309 17.0709 15.5252 17.0666 15.6123 17.0357C15.6994 17.0049 15.7754 16.9488 15.8307 16.8747C16.796 15.7054 16.884 15.6294 16.892 15.6294V15.6321C16.9591 15.5695 17.0387 15.5221 17.1257 15.4929C17.2126 15.4636 17.3048 15.4534 17.396 15.4627C17.476 15.4681 17.5573 15.4827 17.632 15.5161C18.34 15.8401 19.4987 16.3454 19.4987 16.3454L20.2747 16.6934C20.4053 16.7561 20.524 16.9041 20.528 17.0467C20.5333 17.1361 20.5413 17.2801 20.5107 17.5441C20.468 17.8894 20.364 18.3041 20.26 18.5214C20.1888 18.6697 20.0942 18.8057 19.98 18.9241C19.8455 19.0653 19.6982 19.1939 19.54 19.3081C19.4853 19.3492 19.4297 19.3892 19.3733 19.4281C19.2075 19.5333 19.0371 19.6312 18.8627 19.7214C18.5194 19.9038 18.1402 20.0084 17.752 20.0281C17.5053 20.0414 17.2587 20.0601 17.0107 20.0467C17 20.0467 16.2533 19.9307 16.2533 19.9307C14.3577 19.4321 12.6045 18.498 11.1333 17.2027C10.832 16.9374 10.5533 16.6521 10.268 16.3681C9.08133 15.1881 8.18533 13.9147 7.64133 12.7121C7.36288 12.1218 7.21248 11.4793 7.19999 10.8267C7.1945 10.0172 7.45912 9.22897 7.95199 8.58675C8.04933 8.46141 8.14133 8.33075 8.29999 8.18008C8.46933 8.02008 8.57599 7.93475 8.69199 7.87608C8.84622 7.79879 9.01448 7.75344 9.18666 7.74275L9.18799 7.74408Z" fill="white"/>
</svg>
