<svg width="15" height="15" viewBox="0 0 15 15" fill="none" xmlns="http://www.w3.org/2000/svg">
<path d="M4.90846 10.9388C5.1839 10.6489 5.4576 10.3608 5.73302 10.071C6.27696 9.49849 6.81916 8.92786 7.3631 8.3554L8.5705 7.08469C8.6138 7.04094 8.66577 6.97166 8.71947 6.94431C8.65365 6.97895 8.69695 6.96255 8.71774 6.94614C8.7316 6.9352 8.74372 6.92608 8.75758 6.91697C8.78703 6.89509 8.81821 6.87504 8.84939 6.85498C8.90829 6.81852 8.97065 6.78753 9.03128 6.75471C9.07459 6.73283 8.97065 6.78023 9.01396 6.762C9.03301 6.75471 9.05033 6.74742 9.06939 6.74012C9.10231 6.72736 9.13695 6.7146 9.1716 6.70366C9.23569 6.68361 9.30152 6.6672 9.36735 6.65444C9.38294 6.65079 9.39853 6.64897 9.41412 6.64532C9.44184 6.63985 9.46435 6.65079 9.39333 6.64897C9.43144 6.65079 9.47302 6.63985 9.51113 6.63803C9.57349 6.63438 9.63759 6.63438 9.69995 6.63803C9.73113 6.63985 9.76231 6.6435 9.79522 6.64532C9.86278 6.65079 9.77617 6.63985 9.77443 6.64167C9.78829 6.6362 9.82813 6.65079 9.84546 6.65444C9.91128 6.6672 9.97711 6.6836 10.0412 6.70366C10.0724 6.71278 10.1018 6.72371 10.1313 6.73465C10.1469 6.74012 10.1607 6.74559 10.1763 6.75288C10.2266 6.77294 10.2023 6.75106 10.1711 6.74924C10.2231 6.75106 10.3097 6.82034 10.3548 6.84769C10.3859 6.86774 10.4171 6.88779 10.4483 6.90967C10.4622 6.91879 10.476 6.92973 10.4881 6.93884C10.4968 6.94613 10.5522 6.99171 10.5124 6.95707C10.4691 6.91879 10.5314 6.97531 10.5349 6.97713C10.547 6.98807 10.5609 7.00083 10.573 7.01177C10.5973 7.03547 10.6233 7.05917 10.6458 7.08469C10.6631 7.10292 10.6804 7.12298 10.6977 7.14303C10.7116 7.15762 10.7636 7.24148 10.7792 7.2433C10.774 7.2433 10.7307 7.17403 10.7705 7.23237C10.7792 7.24695 10.7896 7.25971 10.7999 7.2743C10.819 7.30164 10.8363 7.33081 10.8536 7.35998C10.8918 7.42562 10.9247 7.49307 10.9559 7.56235C10.9836 7.62069 10.9524 7.55506 10.9489 7.54412C10.9524 7.5587 10.961 7.57693 10.9662 7.59152C10.9784 7.62616 10.9905 7.66262 11.0009 7.69908C11.0217 7.77019 11.039 7.84311 11.0529 7.91786C11.0563 7.93427 11.0581 7.95067 11.0615 7.96708C11.065 7.98714 11.0581 8.03089 11.0633 7.97985C11.0685 7.9288 11.0615 7.9762 11.0633 7.99261C11.065 8.01266 11.0667 8.03454 11.0685 8.05459C11.0719 8.1257 11.0736 8.19497 11.0702 8.26608C11.0685 8.30436 11.065 8.34083 11.0615 8.37729C11.0581 8.42469 11.0754 8.38276 11.065 8.35541C11.0685 8.3627 11.0581 8.40099 11.0581 8.40463C11.0459 8.47938 11.0303 8.55231 11.0096 8.62341C10.994 8.68175 10.9784 8.76196 10.9455 8.81301C10.994 8.7328 10.9437 8.81483 10.9316 8.84218C10.9143 8.88047 10.8952 8.91693 10.8744 8.95521C10.8398 9.01902 10.8 9.07919 10.7601 9.13753C10.7324 9.17946 10.7999 9.0883 10.7688 9.12477C10.7584 9.13753 10.748 9.15211 10.7376 9.16487C10.7099 9.19769 10.6822 9.23051 10.6527 9.2615C10.644 9.27061 10.6371 9.27791 10.6285 9.28702C10.3045 9.62796 9.98058 9.96886 9.65663 10.3098C9.11095 10.8841 8.5653 11.4584 8.01962 12.0327L6.91789 13.1922C6.88498 13.2268 6.8538 13.2596 6.82088 13.2942C6.76892 13.3471 6.71695 13.3963 6.66325 13.4456C6.63726 13.4693 6.61301 13.4911 6.58703 13.513C6.5749 13.524 6.56104 13.5349 6.54892 13.5458C6.48136 13.6024 6.60955 13.5003 6.54026 13.5531C6.42766 13.6388 6.31333 13.7209 6.19207 13.7956C6.07255 13.8685 5.94955 13.9323 5.82482 13.9925C5.75206 14.0271 5.87852 13.9706 5.83002 13.9907C5.81443 13.9961 5.80057 14.0034 5.78498 14.0089C5.75553 14.0217 5.72608 14.0326 5.6949 14.0454C5.62734 14.0709 5.55978 14.0946 5.49049 14.1165C5.3571 14.1584 5.22198 14.193 5.08513 14.2186C5.05395 14.224 5.02277 14.2295 4.99159 14.235C4.98466 14.2368 4.95348 14.2441 4.94482 14.2423C4.98466 14.2532 5.00545 14.235 4.9656 14.2386C4.89458 14.2477 4.82356 14.255 4.75253 14.2587C4.61395 14.2678 4.47537 14.2696 4.33678 14.2623C4.27269 14.2587 4.21033 14.255 4.14797 14.2477C4.11332 14.2441 4.07694 14.2368 4.0423 14.235C4.05096 14.235 4.12545 14.2477 4.06308 14.2386C4.04403 14.235 4.02324 14.2332 4.00419 14.2295C3.73222 14.1821 3.46892 14.1019 3.21254 13.9943C3.15537 13.9706 3.2212 13.9961 3.22813 14.0016C3.216 13.9925 3.19868 13.987 3.18309 13.9816C3.15017 13.9652 3.11726 13.9506 3.08435 13.9342C3.01852 13.9013 2.95443 13.8649 2.89033 13.8284C2.76561 13.7555 2.64435 13.6735 2.52828 13.5859C2.50922 13.5714 2.42607 13.5112 2.49883 13.5641C2.47111 13.544 2.44686 13.5203 2.42088 13.4984C2.36198 13.4474 2.30654 13.3963 2.25111 13.3416C2.15237 13.245 2.05883 13.1429 1.97048 13.0335C1.94796 13.0062 1.92717 12.9807 1.90639 12.9533C1.89253 12.9369 1.8804 12.9187 1.86828 12.9023C1.83883 12.8622 1.90465 12.9551 1.87694 12.9132C1.83363 12.8494 1.79032 12.7874 1.74875 12.7218C1.6708 12.596 1.59804 12.4666 1.53395 12.3335C1.5045 12.2733 1.47852 12.2113 1.4508 12.1493C1.42481 12.091 1.45426 12.1566 1.45773 12.1658C1.45426 12.1493 1.4456 12.1348 1.44041 12.1184C1.42481 12.0801 1.41096 12.04 1.3971 11.9998C1.35032 11.8649 1.31222 11.7282 1.2793 11.5896C1.26371 11.5204 1.24985 11.4511 1.23773 11.3818C1.2308 11.3453 1.2256 11.3071 1.2204 11.2706C1.21867 11.2542 1.21694 11.2378 1.21347 11.2214C1.22214 11.2578 1.22214 11.2852 1.21521 11.2323C1.19962 11.0883 1.19095 10.9424 1.18922 10.7966C1.18749 10.6544 1.19442 10.514 1.20828 10.3718C1.21174 10.3445 1.20828 10.2971 1.21867 10.2715C1.19615 10.3171 1.21001 10.3335 1.21521 10.2934C1.21694 10.277 1.2204 10.2606 1.22214 10.2442C1.23426 10.1694 1.24639 10.0965 1.26198 10.0218C1.29143 9.87774 1.32954 9.73736 1.37458 9.59879C1.3971 9.53133 1.42135 9.46388 1.4456 9.39825C1.45426 9.37637 1.45773 9.33991 1.43867 9.41465C1.44214 9.40007 1.45253 9.38184 1.45773 9.36725C1.47332 9.32897 1.49064 9.29068 1.50796 9.2524C1.56859 9.12113 1.63615 8.99534 1.71064 8.87319C1.74875 8.8112 1.78686 8.75104 1.82843 8.69088C1.83536 8.67994 1.89773 8.59243 1.86828 8.63436C1.83883 8.67629 1.87174 8.62889 1.87867 8.61977C1.89426 8.59972 1.90985 8.57967 1.92544 8.55779C2.02592 8.43017 2.13678 8.31167 2.24939 8.19315L7.71478 2.44118C7.93131 2.21329 8.14785 1.98356 8.3661 1.7557L8.39208 1.72836C8.44232 1.67549 8.49602 1.62444 8.54972 1.57521C8.5757 1.55151 8.59996 1.52964 8.62594 1.50594C8.64153 1.49135 8.65885 1.47859 8.67444 1.46401C8.6831 1.45671 8.74027 1.41114 8.69869 1.44395C8.65885 1.47494 8.74373 1.40931 8.75239 1.40202C8.78184 1.38014 8.81302 1.35644 8.8442 1.33457C8.90483 1.29081 8.9672 1.2507 9.03129 1.21059C9.14909 1.13767 9.27208 1.07021 9.3968 1.01187C9.41066 1.00458 9.42798 0.999112 9.44184 0.99182C9.37774 1.03193 9.40546 1.00823 9.42625 0.999112C9.4557 0.98635 9.48515 0.973589 9.51633 0.962648C9.58389 0.935301 9.65145 0.911602 9.72074 0.8879C9.85412 0.844145 9.98924 0.809505 10.1261 0.782158C10.1573 0.776689 10.1885 0.769396 10.2196 0.763927C10.2387 0.760281 10.2595 0.758458 10.2785 0.754811C10.3149 0.749342 10.2993 0.734757 10.2577 0.758458C10.2803 0.745696 10.327 0.749342 10.353 0.747519C10.3929 0.743873 10.4327 0.740227 10.4708 0.736581C10.6042 0.727465 10.7393 0.723819 10.8744 0.729288C10.9385 0.731111 11.0009 0.736581 11.0633 0.74205C11.0996 0.745696 11.1343 0.749343 11.1689 0.752989C11.1828 0.754812 11.2347 0.763927 11.181 0.754812C11.1239 0.745696 11.1932 0.756635 11.2053 0.758458C11.3421 0.780336 11.479 0.811327 11.6124 0.849615C11.7475 0.887899 11.8809 0.935301 12.0091 0.989994C12.0229 0.995463 12.0385 1.00458 12.0541 1.00822C12.0455 1.0064 11.9814 0.975409 12.0385 1.00093C12.068 1.01552 12.0974 1.02828 12.1269 1.04286C12.1927 1.07568 12.2568 1.11032 12.3209 1.14678C12.4422 1.21606 12.5599 1.29445 12.6743 1.37832C12.7054 1.40019 12.7349 1.4239 12.7643 1.44759C12.8025 1.47676 12.7158 1.40749 12.754 1.43848C12.7661 1.44942 12.7799 1.46036 12.7938 1.4713C12.8527 1.52052 12.9099 1.57339 12.9653 1.62626C13.0675 1.72471 13.1662 1.83045 13.2563 1.93983C13.2996 1.9927 13.3447 2.04558 13.3828 2.10209C13.3308 2.02552 13.3897 2.11303 13.4036 2.13308C13.4278 2.16772 13.4521 2.20419 13.4746 2.23883C13.5543 2.3628 13.627 2.49224 13.6929 2.62534C13.724 2.68915 13.7535 2.75478 13.7812 2.82041C13.7881 2.835 13.7933 2.85323 13.8003 2.86781C13.7951 2.86052 13.7708 2.79124 13.7933 2.8514C13.8072 2.88604 13.8193 2.92251 13.8332 2.95715C13.8817 3.0957 13.9233 3.23608 13.9579 3.37829C13.9735 3.44393 13.9873 3.50773 13.9995 3.57519C14.0047 3.608 14.0116 3.64082 14.0168 3.67363C14.0203 3.69369 14.0237 3.71557 14.0255 3.73562C14.0324 3.79031 14.0272 3.76297 14.0255 3.72468C14.0341 3.87053 14.0532 4.01456 14.0549 4.1604C14.0566 4.30625 14.0514 4.4521 14.0376 4.59795C14.0341 4.63076 14.0307 4.66358 14.0272 4.69822C14.022 4.74015 14.041 4.71827 14.0307 4.67634C14.0324 4.68546 14.0255 4.71827 14.0237 4.72556C14.0133 4.80031 13.9995 4.87324 13.9856 4.94799C13.9579 5.08654 13.9215 5.2251 13.8782 5.36C13.8574 5.42745 13.8332 5.49491 13.8089 5.56236C13.8037 5.57877 13.7968 5.59336 13.7916 5.60977C13.7743 5.65717 13.8176 5.54778 13.7985 5.59336C13.7829 5.628 13.7691 5.66264 13.7535 5.69728C13.6963 5.82489 13.6322 5.94887 13.5629 6.06918C13.5283 6.12752 13.4936 6.18586 13.4555 6.24238C13.4347 6.2752 13.4122 6.30619 13.3914 6.33718C13.3862 6.3463 13.362 6.37182 13.362 6.37911C13.362 6.37364 13.4122 6.31348 13.3707 6.36818C13.2806 6.48485 13.187 6.59789 13.0866 6.70361C12.9584 6.83852 12.948 7.08645 13.0866 7.21957C13.2251 7.35268 13.4399 7.36359 13.5768 7.21957C14.4343 6.30984 14.8725 5.00266 14.7201 3.72818C14.5625 2.42284 13.8557 1.24691 12.7713 0.577837C11.7389 -0.0584328 10.4327 -0.182413 9.31356 0.271554C8.78001 0.488504 8.29499 0.811213 7.88963 1.23599L2.07264 7.358C1.78162 7.66428 1.48715 7.96147 1.24289 8.31514C0.536136 9.33972 0.324794 10.7052 0.647002 11.9212C0.984795 13.1956 1.88731 14.222 3.04969 14.7106C4.16355 15.1791 5.46968 15.0697 6.51093 14.448C7.01848 14.1436 7.41344 13.7097 7.82055 13.2813C8.34371 12.7307 8.86684 12.1801 9.38826 11.6313C9.87502 11.119 10.3601 10.6086 10.8468 10.0963C10.9421 9.996 11.0374 9.89573 11.1327 9.79545C11.5398 9.36337 11.7753 8.76904 11.7667 8.15831C11.758 7.49104 11.467 6.8311 10.9664 6.41722C10.4398 5.9815 9.76936 5.81558 9.11456 5.96873C8.70226 6.06536 8.33675 6.30054 8.04055 6.61231L4.41491 10.4281C4.28672 10.563 4.27633 10.8109 4.41491 10.944C4.55696 11.0735 4.77162 11.0828 4.90846 10.9388Z" fill="white"/>
</svg>
