<svg width="30" height="35" viewBox="0 0 30 35" fill="none" xmlns="http://www.w3.org/2000/svg">
<path d="M18.1608 11.1635C19.0664 12.0763 19.6585 13.34 19.6585 14.7794C19.6585 16.1836 19.1012 17.4825 18.1608 18.3952C17.2553 19.308 15.9666 19.9047 14.5734 19.9047C13.1454 19.9047 11.8915 19.3431 10.986 18.3952C10.0456 17.4474 9.48828 16.1836 9.48828 14.7794C9.48828 13.34 10.0456 12.0763 10.986 11.1635C11.9263 10.2157 13.1802 9.65399 14.5734 9.65399C15.9666 9.65399 17.2204 10.2157 18.1608 11.1635Z" fill="white"/>
<path d="M0.5 0V35H29.7568V0H0.5ZM10.7747 27.7332H7.98835V22.3621C8.37147 22.7833 8.78943 23.1344 9.24221 23.4503C9.72982 23.7663 10.2174 24.0471 10.7747 24.2227V27.7332ZM21.1887 27.8385L17.671 22.011C16.6957 22.4323 15.6508 22.678 14.5711 22.678C12.4117 22.678 10.4612 21.8004 9.03323 20.3611C7.60522 18.9569 6.73448 16.9559 6.73448 14.7793C6.73448 12.6028 7.60522 10.6369 9.03323 9.19759C10.4264 7.75827 12.4117 6.88064 14.5711 6.88064C16.7306 6.88064 18.681 7.75827 20.109 9.19759C21.5022 10.6018 22.4078 12.6028 22.4078 14.7793C22.4078 16.9559 21.537 18.9218 20.109 20.3611C20.0742 20.3962 20.0045 20.4664 19.9697 20.5015L23.5571 26.4343L21.1887 27.8385Z" fill="white"/>
</svg>
