<svg width="180" height="19" viewBox="0 0 180 19" fill="none" xmlns="http://www.w3.org/2000/svg">
<g style="mix-blend-mode:color">
<path d="M0.597656 17.9816V1.23639H7.31975C7.4939 1.23639 7.66805 1.23639 7.91186 1.23639C8.15566 1.23639 8.36464 1.27149 8.60845 1.3066C9.54884 1.44702 10.3151 1.76297 10.942 2.25444C11.569 2.74592 12.0217 3.37781 12.3352 4.11502C12.6487 4.85224 12.788 5.69476 12.788 6.57239C12.788 7.9064 12.4397 9.06487 11.7779 10.0127C11.1162 10.9606 10.0713 11.5925 8.71293 11.8382L7.73771 11.9435H3.00089V17.9816H0.597656ZM3.00089 9.66166H7.21527C7.35458 9.66166 7.52873 9.66166 7.73771 9.62656C7.91186 9.62656 8.12083 9.59145 8.26015 9.55635C8.74776 9.45103 9.16572 9.2404 9.44435 8.92445C9.75782 8.6085 9.96679 8.25745 10.1061 7.83619C10.2454 7.41492 10.3151 7.02877 10.3151 6.6075C10.3151 6.18624 10.2454 5.80008 10.1061 5.37882C9.96679 4.95755 9.75782 4.6065 9.44435 4.29055C9.13089 3.9746 8.74776 3.76397 8.26015 3.65866C8.086 3.62355 7.91186 3.58844 7.73771 3.55334C7.56356 3.55334 7.38941 3.51823 7.21527 3.51823H3.00089V9.66166ZM10.3151 17.9816L7.04112 11.1712L9.47918 10.5393L13.1015 17.9816H10.3151Z" fill="white"/>
<path d="M23.0273 17.9816V1.23639H33.6503V3.51823H25.4306V8.22235H32.2572V10.5042H25.4306V15.6998H33.6503V17.9816H23.0273Z" fill="white"/>
<path d="M49.0805 18.3327C47.8963 18.3327 46.8166 18.122 45.8413 17.7008C44.8661 17.2795 44.0999 16.6827 43.4729 15.9104C42.846 15.1381 42.4629 14.2253 42.2539 13.1722L44.7616 12.786C45.0054 13.8041 45.5627 14.6115 46.3638 15.1732C47.1649 15.7349 48.1053 16.0157 49.185 16.0157C49.8467 16.0157 50.4737 15.9104 51.0309 15.6998C51.5882 15.4891 52.041 15.1732 52.3893 14.787C52.7376 14.4009 52.9117 13.9094 52.9117 13.3477C52.9117 13.0318 52.8769 12.786 52.7724 12.5403C52.6679 12.2945 52.5286 12.119 52.3545 11.9435C52.1803 11.768 51.9365 11.6275 51.6927 11.4871C51.4489 11.3467 51.1354 11.2414 50.8568 11.1712L46.6076 9.90738C46.1896 9.76696 45.7717 9.62654 45.3537 9.41591C44.9358 9.20528 44.5178 8.95954 44.1695 8.64359C43.8212 8.32764 43.5078 7.90638 43.2988 7.45001C43.0898 6.95853 42.9505 6.39685 42.9505 5.69474C42.9505 4.67669 43.2291 3.79906 43.7516 3.06184C44.274 2.35974 45.0054 1.79805 45.911 1.447C46.8166 1.09595 47.8266 0.885315 48.9412 0.885315C50.0557 0.885315 51.0658 1.09595 51.9713 1.48211C52.8769 1.86826 53.6083 2.42995 54.2004 3.16716C54.7925 3.90437 55.2105 4.782 55.4195 5.80006L52.8421 6.25643C52.7376 5.62453 52.4938 5.09795 52.1107 4.64158C51.7275 4.18521 51.2747 3.83416 50.7175 3.58842C50.1602 3.34269 49.5681 3.20227 48.9412 3.20227C48.3142 3.20227 47.757 3.27248 47.2345 3.48311C46.7121 3.69374 46.329 3.97458 46.0155 4.32564C45.702 4.67669 45.5627 5.09795 45.5627 5.58943C45.5627 6.0458 45.702 6.43195 45.9807 6.7128C46.2593 6.99364 46.5728 7.23938 46.9907 7.3798C47.3738 7.55532 47.7918 7.69574 48.1749 7.80106L51.2399 8.67869C51.623 8.78401 52.0758 8.92443 52.5634 9.09996C53.051 9.27549 53.5387 9.52122 53.9914 9.87228C54.4442 10.1882 54.8274 10.6446 55.1408 11.1712C55.4543 11.6978 55.5936 12.3999 55.5936 13.2073C55.5936 14.0498 55.4195 14.787 55.0712 15.454C54.7229 16.0859 54.2701 16.6476 53.678 17.0689C53.0859 17.4901 52.4241 17.8412 51.623 18.0518C50.7523 18.2273 49.9512 18.3327 49.0805 18.3327Z" fill="white"/>
<path d="M71.7855 18.3325C70.1137 18.3325 68.7205 17.9815 67.5363 17.2443C66.3521 16.507 65.4814 15.489 64.8545 14.1901C64.2275 12.8912 63.9141 11.3466 63.9141 9.62641C63.9141 7.90625 64.2275 6.36161 64.8545 5.06272C65.4814 3.76382 66.387 2.71066 67.5363 2.00855C68.7205 1.27134 70.1137 0.920288 71.7855 0.920288C73.4574 0.920288 74.8505 1.27134 76.0347 2.00855C77.2189 2.74577 78.0897 3.76382 78.7166 5.06272C79.3435 6.36161 79.657 7.90625 79.657 9.62641C79.657 11.3466 79.3435 12.8912 78.7166 14.1901C78.0897 15.489 77.2189 16.5422 76.0347 17.2443C74.8505 17.9464 73.4574 18.3325 71.7855 18.3325ZM71.7855 16.0156C72.9697 16.0156 73.945 15.7698 74.7112 15.2433C75.4775 14.7167 76.0696 13.9444 76.4875 12.9965C76.9055 12.0487 77.0796 10.8902 77.0796 9.62641C77.0796 8.36262 76.8706 7.23925 76.4875 6.2563C76.1044 5.27335 75.5123 4.53614 74.7112 4.00956C73.945 3.48298 72.9349 3.20213 71.7855 3.20213C70.6013 3.20213 69.6261 3.44787 68.8599 3.97445C68.0936 4.50103 67.5015 5.27335 67.0836 6.22119C66.6656 7.16903 66.4914 8.32751 66.4914 9.5913C66.4914 10.8551 66.6656 11.9785 67.0836 12.9614C67.5015 13.9444 68.0588 14.6816 68.8599 15.2082C69.6261 15.7347 70.6362 16.0156 71.7855 16.0156Z" fill="white"/>
<path d="M89.1367 17.9816V1.23639H91.54V15.6998H99.0631V17.9816H89.1367Z" fill="white"/>
<path d="M114.145 18.3327C112.856 18.3327 111.707 18.0518 110.697 17.5253C109.687 16.9987 108.921 16.2264 108.363 15.2434C107.806 14.2605 107.527 13.1371 107.527 11.8031V1.23639H109.965V11.6978C109.965 12.3999 110.07 13.0318 110.314 13.5935C110.558 14.12 110.871 14.5764 111.289 14.9626C111.672 15.3136 112.125 15.5945 112.647 15.8051C113.135 15.9806 113.657 16.0859 114.18 16.0859C114.702 16.0859 115.225 15.9806 115.712 15.8051C116.2 15.6296 116.653 15.3487 117.071 14.9626C117.489 14.6115 117.802 14.1551 118.011 13.5935C118.255 13.0669 118.359 12.435 118.359 11.7329V1.23639H120.797V11.8382C120.797 13.1371 120.519 14.2956 119.961 15.2785C119.404 16.2615 118.603 16.9987 117.628 17.5604C116.653 18.122 115.468 18.3327 114.145 18.3327Z" fill="white"/>
<path d="M135.112 17.9816V3.51823H129.574V1.23639H143.053V3.51823H137.515V17.9816H135.112Z" fill="white"/>
<path d="M152.07 17.9816V1.23639H154.474V18.0167H152.07V17.9816Z" fill="white"/>
<path d="M171.817 18.3325C170.145 18.3325 168.752 17.9815 167.568 17.2443C166.383 16.507 165.513 15.489 164.886 14.1901C164.259 12.8912 163.945 11.3466 163.945 9.62641C163.945 7.90625 164.259 6.36161 164.886 5.06272C165.513 3.76382 166.418 2.71066 167.568 2.00855C168.752 1.27134 170.145 0.920288 171.817 0.920288C173.489 0.920288 174.882 1.27134 176.066 2.00855C177.25 2.74577 178.121 3.76382 178.748 5.06272C179.375 6.36161 179.688 7.90625 179.688 9.62641C179.688 11.3466 179.375 12.8912 178.748 14.1901C178.121 15.489 177.25 16.5422 176.066 17.2443C174.882 17.9464 173.489 18.3325 171.817 18.3325ZM171.817 16.0156C173.001 16.0156 173.976 15.7698 174.742 15.2433C175.509 14.7167 176.101 13.9444 176.519 12.9965C176.937 12.0487 177.111 10.8902 177.111 9.62641C177.111 8.36262 176.902 7.23925 176.519 6.2563C176.136 5.27335 175.544 4.53614 174.742 4.00956C173.976 3.48298 172.966 3.20213 171.817 3.20213C170.633 3.20213 169.657 3.44787 168.891 3.97445C168.125 4.50103 167.533 5.27335 167.115 6.22119C166.697 7.16903 166.523 8.32751 166.523 9.5913C166.523 10.8551 166.697 11.9785 167.115 12.9614C167.533 13.9444 168.09 14.6816 168.891 15.2082C169.657 15.7347 170.633 16.0156 171.817 16.0156Z" fill="white"/>
</g>
</svg>
